<svg xmlns="http://www.w3.org/2000/svg" width="165" height="27" viewBox="0 0 165 27">
    <g fill="#00BDFF" fill-rule="evenodd">
        <path d="M43.51 22.28c4.116 0 7-2.184 7-5.852v-.056c0-3.248-2.156-4.732-6.3-5.74-3.752-.896-4.648-1.568-4.648-3.08v-.056c0-1.288 1.176-2.324 3.192-2.324 1.792 0 3.556.7 5.32 2.016l1.848-2.604C47.934 2.988 45.666 2.12 42.81 2.12c-3.892 0-6.692 2.324-6.692 5.684v.056c0 3.612 2.352 4.844 6.524 5.852 3.64.84 4.424 1.596 4.424 2.996v.056c0 1.484-1.344 2.464-3.472 2.464-2.436 0-4.312-.924-6.188-2.548l-2.072 2.464c2.352 2.1 5.18 3.136 8.176 3.136zM54.178 22h3.388v-8.344c0-2.296 1.372-3.668 3.332-3.668 2.016 0 3.164 1.316 3.164 3.612V22h3.388v-9.408c0-3.444-1.932-5.684-5.264-5.684-2.296 0-3.668 1.204-4.62 2.604V1.56h-3.388V22zm24.388.336c-4.508 0-7.84-3.444-7.84-7.644v-.056c0-4.228 3.36-7.728 7.896-7.728s7.868 3.444 7.868 7.672v.056c0 4.2-3.36 7.7-7.924 7.7zm.056-2.94c2.744 0 4.48-2.156 4.48-4.704v-.056c0-2.604-1.876-4.76-4.536-4.76-2.716 0-4.452 2.128-4.452 4.704v.056c0 2.576 1.876 4.76 4.508 4.76zm14.868 2.716h3.024l3.332-10.108 3.304 10.108h3.024l4.844-14.896h-3.388l-3.024 10.136-3.304-10.192h-2.884l-3.276 10.192-2.968-10.136h-3.472l4.788 14.896zM126.446 22h-3.36v-1.82c-1.008 1.204-2.548 2.128-4.788 2.128-2.8 0-5.264-1.596-5.264-4.564v-.056c0-3.276 2.548-4.844 5.992-4.844 1.792 0 2.94.252 4.088.616v-.28c0-2.044-1.288-3.164-3.64-3.164-1.652 0-2.884.364-4.228.924l-.924-2.716c1.624-.728 3.22-1.232 5.628-1.232 4.368 0 6.496 2.296 6.496 6.244V22zm-3.276-5.348v-.84c-.868-.336-2.072-.588-3.388-.588-2.128 0-3.388.868-3.388 2.296v.056c0 1.4 1.26 2.184 2.856 2.184 2.24 0 3.92-1.26 3.92-3.108zm7.308 9.828V7.216h3.388V9.68c1.092-1.54 2.632-2.772 5.012-2.772 3.5 0 6.888 2.772 6.888 7.672v.056c0 4.9-3.36 7.672-6.888 7.672-2.436 0-3.976-1.232-5.012-2.604v6.776h-3.388zm7.616-7.112c2.324 0 4.228-1.82 4.228-4.732v-.056c0-2.856-1.932-4.732-4.228-4.732s-4.312 1.904-4.312 4.732v.056c0 2.856 2.016 4.732 4.312 4.732zm11.144 7.112V7.216h3.388V9.68c1.092-1.54 2.632-2.772 5.012-2.772 3.5 0 6.888 2.772 6.888 7.672v.056c0 4.9-3.36 7.672-6.888 7.672-2.436 0-3.976-1.232-5.012-2.604v6.776h-3.388zm7.616-7.112c2.324 0 4.228-1.82 4.228-4.732v-.056c0-2.856-1.932-4.732-4.228-4.732s-4.312 1.904-4.312 4.732v.056c0 2.856 2.016 4.732 4.312 4.732z"/>
        <g fill-rule="nonzero">
            <path d="M1 24h22a1 1 0 0 0 1-1V1a1 1 0 0 0-1-1H1a1 1 0 0 0-1 1v22a1 1 0 0 0 1 1zM2 2h20v20H2V2z"/>
            <path d="M6.002 1.07c.004.047.01.146.015.292.063 1.65-.038 3.596-.432 5.428C4.865 10.134 3.4 12 1 12a1 1 0 0 0 0 2c3.578 0 5.645-2.634 6.54-6.79.435-2.022.545-4.121.475-5.925A12.448 12.448 0 0 0 7.998.93a1 1 0 0 0-1.996.138z"/>
            <path d="M7.996 23.091c.006-.068.015-.185.023-.346.078-1.532-.024-3.292-.456-4.991C6.668 14.23 4.558 12 1 12a1 1 0 0 0 0 2c2.495 0 3.932 1.519 4.625 4.246.374 1.473.466 3.047.396 4.396a7.53 7.53 0 0 1-.017.267 1 1 0 1 0 1.992.182zM16.002.93l-.017.355c-.07 1.804.04 3.903.475 5.925C17.355 11.366 19.422 14 23 14a1 1 0 0 0 0-2c-2.4 0-3.865-1.866-4.585-5.21-.394-1.832-.495-3.777-.432-5.428.006-.146.011-.245.015-.293a1 1 0 1 0-1.996-.138z"/>
            <path d="M17.996 22.909a7.53 7.53 0 0 1-.017-.267c-.07-1.349.022-2.923.396-4.396C19.068 15.52 20.505 14 23 14a1 1 0 0 0 0-2c-3.558 0-5.668 2.231-6.563 5.754-.432 1.699-.534 3.459-.456 4.99.008.162.017.28.023.347a1 1 0 0 0 1.992-.182zM12 6.478l1.06 2.146 2.369.345-1.714 1.671.404 2.36L12 11.886 9.881 13l.404-2.36-1.714-1.672 2.369-.345zM10 24h4a1 1 0 0 0 1-1v-3a1 1 0 0 0-1-1h-4a1 1 0 0 0-1 1v3a1 1 0 0 0 1 1zm1-3h2v1h-2v-1z"/>
        </g>
    </g>
</svg>
